<?xml version="1.0" standalone="no"?>
<!DOCTYPE svg PUBLIC "-//W3C//DTD SVG 20010904//EN"
 "http://www.w3.org/TR/2001/REC-SVG-20010904/DTD/svg10.dtd">
<svg version="1.0" xmlns="http://www.w3.org/2000/svg"
 width="328.000000pt" height="328.000000pt" viewBox="0 0 328.000000 328.000000"
 preserveAspectRatio="xMidYMid meet">
<metadata>
Created by potrace 1.14, written by Peter Selinger 2001-2017
</metadata>
<g transform="translate(0.000000,328.000000) scale(0.100000,-0.100000)"
fill="#000000" stroke="none">
<path d="M1765 2260 c-26 -42 -4 -86 46 -93 23 -4 68 10 70 22 0 3 2 15 4 25
7 39 -12 56 -65 56 -27 0 -52 -5 -55 -10z"/>
<path d="M2307 2255 c-9 -8 -14 -23 -12 -32 2 -10 4 -23 4 -30 1 -16 55 -33
83 -26 37 10 55 51 37 85 -12 23 -90 25 -112 3z"/>
<path d="M583 2239 c-18 -7 -54 -56 -53 -74 2 -48 -2 -65 -14 -65 -8 0 -28
-13 -45 -29 -25 -23 -31 -37 -31 -69 0 -40 30 -92 54 -92 13 0 17 -19 19 -95
l2 -50 -110 0 c-66 0 -110 4 -110 10 -2 23 -17 55 -25 50 -4 -3 -13 2 -20 10
-7 8 -27 15 -46 15 -36 0 -67 -32 -79 -83 -6 -21 -13 -27 -36 -27 -45 0 -83
-39 -83 -87 0 -44 28 -98 46 -87 6 4 8 3 5 -3 -4 -6 1 -17 10 -24 14 -12 16
-12 8 1 -6 12 -5 13 6 3 7 -7 21 -13 30 -13 10 0 19 -11 23 -25 7 -29 51 -75
72 -75 8 0 13 -4 10 -9 -3 -5 1 -12 10 -15 8 -3 13 -2 10 3 -3 5 1 12 10 15 9
4 13 2 8 -5 -4 -8 0 -8 15 0 24 14 39 40 36 63 -2 11 2 15 13 11 9 -4 13 -2 9
4 -5 7 2 10 18 8 14 -1 25 3 25 8 0 7 4 7 11 0 8 -8 20 -8 36 -2 15 5 22 5 18
0 -3 -5 -1 -12 5 -16 6 -3 10 4 10 17 1 19 2 20 10 7 6 -10 18 -15 32 -12 22
4 23 1 23 -55 1 -57 -1 -61 -31 -77 -53 -28 -62 -109 -17 -153 15 -15 27 -30
25 -34 -1 -5 1 -7 6 -7 22 4 29 -4 30 -30 1 -35 28 -90 47 -98 8 -3 12 -10 8
-17 -3 -6 -2 -8 2 -3 5 4 17 -1 28 -10 11 -10 17 -12 13 -5 -4 6 -2 12 3 12 6
0 11 -4 11 -9 0 -5 16 -1 35 7 23 11 31 19 22 24 -8 5 -7 8 5 8 12 0 15 5 11
17 -5 11 -3 14 6 8 10 -6 11 -3 1 15 -8 15 -8 20 -1 16 6 -4 11 -2 11 3 0 6
-6 11 -12 11 -9 0 -8 4 2 10 8 5 11 10 7 10 -4 0 -2 6 5 14 7 7 18 12 24 9 6
-2 14 3 18 12 3 9 11 13 16 10 6 -4 10 -3 9 2 -4 14 13 43 21 38 11 -7 6 22
-5 32 -4 4 -5 2 0 -6 6 -10 4 -12 -4 -6 -9 5 -10 10 -2 18 7 7 7 15 -2 26 -9
12 -9 13 0 7 9 -5 11 -2 7 9 -4 9 -9 14 -11 11 -3 -3 -21 11 -39 31 -27 29
-32 39 -22 50 9 11 9 16 0 22 -7 4 -8 12 -2 21 5 8 5 19 1 25 -5 6 0 19 12 30
11 11 17 14 13 8 -4 -7 -3 -13 3 -13 5 0 12 6 14 13 4 9 6 9 6 0 1 -9 8 -10
27 -3 15 6 23 6 19 1 -3 -5 -1 -12 5 -16 5 -3 10 1 10 11 0 13 3 14 15 4 12
-10 15 -10 15 1 1 9 5 8 15 -5 13 -17 15 -18 15 -3 0 15 3 15 20 5 11 -7 20
-18 20 -25 0 -6 9 -18 20 -26 11 -8 17 -17 13 -20 -3 -4 4 -7 16 -7 12 0 20
-4 17 -8 -2 -4 4 -9 15 -9 13 -1 17 2 12 10 -5 9 -3 9 8 0 11 -9 18 -8 31 1
10 7 15 16 11 19 -3 4 1 9 10 13 9 3 13 12 10 20 -3 8 0 14 6 14 6 0 10 3 10
8 -3 20 3 30 21 35 13 3 18 1 14 -6 -5 -9 -4 -9 6 0 7 6 19 9 26 6 10 -4 12 0
8 11 -5 12 -2 15 12 9 14 -5 16 -3 11 11 -4 9 -3 15 2 11 5 -3 12 -1 16 5 3 5
0 10 -7 10 -9 0 -9 3 2 10 13 9 13 10 0 10 -13 0 -13 1 0 10 12 8 13 11 1 19
-11 7 -11 9 0 14 10 4 10 6 2 6 -7 1 -13 8 -13 16 0 8 -7 15 -15 15 -8 0 -15
4 -15 10 0 13 -76 51 -85 42 -5 -4 -5 -2 -2 4 4 7 0 17 -8 24 -12 10 -13 16
-3 28 10 13 10 14 1 8 -8 -4 -13 -2 -13 4 0 6 -5 8 -10 5 -5 -3 -10 -1 -10 5
0 6 -15 17 -32 25 -44 18 -81 -1 -94 -47 l-10 -33 -87 -3 c-48 -1 -95 2 -105
7 -13 8 -14 10 -2 11 13 0 13 2 1 9 -12 7 -12 13 -3 24 7 7 9 16 6 19 -2 3 -7
18 -10 34 -3 20 -1 25 5 15 7 -11 10 -10 19 4 6 11 16 16 25 12 11 -4 14 -2
10 9 -3 7 0 14 6 14 6 0 11 13 11 28 0 15 6 34 13 41 10 11 10 13 0 7 -12 -6
-18 11 -14 37 0 4 -3 7 -8 7 -12 0 -89 69 -77 70 5 0 2 8 -5 17 -12 15 -12 16
1 8 12 -7 13 -6 3 6 -11 14 -13 19 -13 40 0 5 -5 7 -12 3 -8 -5 -9 0 -6 14 4
13 2 20 -4 16 -5 -3 -17 1 -26 9 -23 19 -53 26 -79 16z"/>
<path d="M1293 2232 c-26 -4 -30 -17 -8 -26 12 -4 15 -32 15 -166 0 -134 -3
-162 -15 -166 -41 -16 -4 -24 108 -24 198 0 272 35 296 139 28 121 -33 223
-140 236 -53 7 -225 11 -256 7z m240 -114 c24 -33 28 -110 6 -153 -14 -29 -70
-58 -95 -48 -14 5 -15 235 0 245 16 10 67 -15 89 -44z"/>
<path d="M1810 2135 c-30 -7 -58 -11 -62 -9 -4 2 -10 -1 -14 -7 -4 -6 1 -16
10 -21 23 -13 24 -209 1 -228 -8 -7 -15 -15 -15 -19 0 -3 41 -6 90 -6 61 0 90
4 90 11 0 7 -6 14 -14 17 -10 4 -13 35 -13 138 1 75 -3 134 -9 135 -5 1 -34
-4 -64 -11z"/>
<path d="M2350 2136 c-25 -6 -84 -11 -132 -10 -50 2 -88 -1 -88 -7 0 -5 4 -9
9 -9 19 0 20 -33 4 -93 -9 -34 -19 -65 -23 -70 -4 -4 -15 27 -26 69 -18 73
-18 77 -1 89 10 7 14 15 10 18 -15 9 -193 6 -193 -4 0 -5 5 -9 10 -9 13 0 21
-20 62 -150 17 -58 36 -108 41 -111 5 -4 38 -6 75 -5 l66 1 41 127 c22 70 43
130 47 133 3 4 16 2 27 -5 19 -10 21 -20 21 -114 0 -80 -3 -106 -15 -116 -8
-7 -15 -15 -15 -19 0 -3 40 -6 90 -6 61 0 90 4 90 11 0 7 -6 14 -14 17 -10 4
-13 35 -13 139 1 149 4 145 -73 124z"/>
<path d="M2575 2139 c-16 -5 -43 -10 -58 -11 -35 -3 -46 -17 -23 -30 23 -13
24 -216 1 -224 -8 -4 -15 -11 -15 -18 0 -7 29 -11 90 -11 61 0 90 4 90 11 0 7
-7 14 -15 18 -11 4 -15 23 -15 78 0 77 6 95 30 98 37 6 38 1 37 -100 -1 -61 2
-100 8 -101 10 -1 123 -1 138 0 14 1 7 21 -8 21 -12 0 -15 17 -15 96 0 107
-16 158 -53 168 -43 11 -85 6 -111 -15 l-26 -20 0 25 c0 28 -7 30 -55 15z"/>
<path d="M2992 2133 c-32 -6 -102 -78 -103 -105 -4 -61 1 -90 20 -122 30 -48
82 -70 161 -70 84 1 122 19 131 62 6 31 5 33 -15 27 -11 -4 -43 -10 -69 -12
-52 -5 -87 14 -87 47 0 14 12 16 83 15 45 -1 88 1 95 3 24 8 9 87 -23 118 -36
36 -116 52 -193 37z m100 -70 c28 -25 22 -33 -27 -33 -48 0 -55 9 -29 34 20
20 33 20 56 -1z"/>
<path d="M2406 1794 c-20 -19 -21 -58 -1 -74 15 -12 76 -17 93 -6 20 12 20 58
1 77 -23 23 -72 25 -93 3z"/>
<path d="M1106 1778 c3 -5 10 -6 15 -3 13 9 11 12 -6 12 -8 0 -12 -4 -9 -9z"/>
<path d="M1260 1761 c0 -6 7 -14 15 -17 23 -9 22 -309 -1 -318 -38 -15 4 -23
113 -21 134 2 184 14 230 57 59 57 68 177 16 239 -46 54 -75 63 -230 67 -103
3 -143 1 -143 -7z m248 -96 c21 -25 24 -37 25 -92 0 -57 -41 -103 -93 -103
-22 0 -21 -4 -21 100 0 152 -3 140 34 129 17 -5 42 -20 55 -34z"/>
<path d="M2431 1675 c-74 -16 -79 -20 -54 -33 17 -9 19 -22 18 -111 -1 -87 -3
-103 -20 -115 -16 -12 -8 -13 73 -13 85 0 114 9 77 23 -12 5 -15 30 -15 135 0
71 -3 129 -7 128 -5 0 -37 -7 -72 -14z"/>
<path d="M3005 1679 c-16 -5 -42 -10 -57 -11 -27 -2 -39 -23 -17 -30 6 -2 10
-38 10 -88 1 -123 0 -132 -11 -125 -5 3 -10 0 -10 -9 0 -12 15 -14 83 -11 99
3 95 2 73 18 -13 10 -17 28 -18 86 0 76 8 95 38 89 17 -3 19 -15 22 -99 l3
-96 69 0 c72 1 79 4 58 25 -6 6 -12 46 -14 89 -1 43 -2 88 -3 100 -3 55 -82
81 -145 48 -36 -19 -35 -19 -29 5 6 22 -4 24 -52 9z"/>
<path d="M1780 1660 c-128 -68 -79 -259 68 -265 56 -3 129 8 142 21 5 5 11 23
15 41 l5 32 -36 -15 c-44 -18 -103 -12 -121 12 -26 36 -17 41 75 40 l87 -1 3
30 c3 40 -16 75 -57 102 -43 29 -130 31 -181 3z m128 -66 c3 -18 -2 -20 -35
-18 -21 1 -39 2 -41 3 -1 1 2 10 8 22 15 27 64 23 68 -7z"/>
<path d="M2121 1664 c-43 -18 -60 -41 -61 -80 0 -36 30 -71 68 -80 92 -21 103
-25 100 -42 -3 -13 -14 -17 -52 -17 -39 1 -52 6 -68 25 -32 39 -48 35 -44 -12
2 -21 6 -41 7 -42 17 -13 76 -23 123 -21 67 3 107 18 125 46 43 70 6 127 -94
143 -22 4 -44 11 -49 16 -14 14 13 40 38 36 11 -3 26 -5 32 -5 5 -1 20 -10 32
-22 27 -25 39 -19 37 18 -1 19 -9 32 -26 40 -33 17 -126 16 -168 -3z"/>
<path d="M2645 1665 c-63 -32 -80 -78 -50 -134 14 -28 14 -29 -15 -41 -55 -23
-23 -100 42 -100 37 0 36 -17 -2 -25 -35 -8 -38 -26 -9 -54 37 -35 140 -37
206 -5 48 24 77 75 61 110 -15 32 -30 37 -126 40 -91 3 -112 7 -112 24 0 7 16
9 42 7 24 -3 64 2 89 9 65 20 84 43 88 112 1 6 7 12 15 12 11 0 21 17 25 47 1
3 -50 8 -111 10 -88 2 -120 0 -143 -12z m100 -80 c0 -23 -5 -31 -22 -33 -17
-3 -24 3 -29 22 -8 32 3 48 29 44 17 -2 22 -10 22 -33z m22 -209 c3 -3 3 -12
0 -21 -9 -23 -74 -20 -86 4 -6 10 -8 20 -6 23 7 6 85 1 92 -6z"/>
<path d="M1286 1216 c-31 -32 -32 -36 -26 -95 4 -45 12 -67 28 -84 l23 -22
958 0 959 0 21 24 c25 29 23 24 26 86 2 60 -17 102 -51 115 -16 6 -391 10
-966 10 l-941 0 -31 -34z"/>
</g>
</svg>
